<?xml version="1.0" encoding="UTF-8"?>
<svg width="20px" height="20px" viewBox="0 0 20 20" version="1.1" xmlns="http://www.w3.org/2000/svg" xmlns:xlink="http://www.w3.org/1999/xlink">
    <!-- Generator: Sketch 49.2 (51160) - http://www.bohemiancoding.com/sketch -->
    <title>Assets_Icon</title>
    <desc>Created with Sketch.</desc>
    <defs></defs>
    <g id="Atoms-–-Desktop" stroke="none" stroke-width="1" fill="none" fill-rule="evenodd">
        <g id="Atoms" transform="translate(-530.000000, -3072.000000)" fill="#999999" fill-rule="nonzero">
            <g id="Icons" transform="translate(130.000000, 2622.000000)">
                <g id="InputBox" transform="translate(400.000000, 110.000000)">
                    <g id="Primary-Button">
                        <g id="Side-Menu-Copy" transform="translate(0.000000, 340.000000)">
                            <path d="M18.3333333,20 L1.66666667,20 L0,11.6666667 L20,11.6666667 L18.3333333,20 Z M17.13,1.66583333 L17.4958333,0 L2.50083333,0 L2.86666667,1.66583333 L17.13,1.66583333 Z M18.5466667,5 L18.855,3.33333333 L1.14166667,3.33333333 L1.45083333,5 L18.5466667,5 Z M2.10416667,10 L1.8925,8.33333333 L18.1008333,8.33333333 L17.8825,10 L19.5633333,10 L20,6.66666667 L0,6.66666667 L0.424166667,10 L2.10416667,10 L2.10416667,10 Z" id="Assets_Icon"></path>
                        </g>
                    </g>
                </g>
            </g>
        </g>
    </g>
</svg>