<?xml version="1.0" encoding="UTF-8"?>
<svg width="17px" height="20px" viewBox="0 0 17 20" version="1.1" xmlns="http://www.w3.org/2000/svg" xmlns:xlink="http://www.w3.org/1999/xlink">
    <!-- Generator: Sketch 49.2 (51160) - http://www.bohemiancoding.com/sketch -->
    <title>Delete_Icon</title>
    <desc>Created with Sketch.</desc>
    <defs></defs>
    <g id="Atoms-–-Desktop" stroke="none" stroke-width="1" fill="none" fill-rule="evenodd">
        <g id="Atoms" transform="translate(-530.000000, -3962.000000)" fill="#999999">
            <g id="Icons" transform="translate(130.000000, 2622.000000)">
                <g id="InputBox" transform="translate(400.000000, 110.000000)">
                    <g id="Primary-Button">
                        <g id="Side-Menu-Copy-2" transform="translate(0.000000, 990.000000)">
                            <path d="M16.6666667,241.666667 L16.6666667,243.333333 L0,243.333333 L0,241.666667 L4.75916667,241.666667 C5.50916667,241.666667 6.11833333,240.750833 6.11833333,240 L10.5475,240 C10.5475,240.750833 11.1558333,241.666667 11.9066667,241.666667 L16.6666667,241.666667 Z M13.3333333,256.666667 C13.3333333,257.126667 12.96,257.5 12.5,257.5 C12.04,257.5 11.6666667,257.126667 11.6666667,256.666667 L11.6666667,248.333333 C11.6666667,247.873333 12.04,247.5 12.5,247.5 C12.96,247.5 13.3333333,247.873333 13.3333333,248.333333 L13.3333333,256.666667 Z M9.16666667,256.666667 C9.16666667,257.126667 8.79333333,257.5 8.33333333,257.5 C7.87333333,257.5 7.5,257.126667 7.5,256.666667 L7.5,248.333333 C7.5,247.873333 7.87333333,247.5 8.33333333,247.5 C8.79333333,247.5 9.16666667,247.873333 9.16666667,248.333333 L9.16666667,256.666667 Z M5,256.666667 C5,257.126667 4.62666667,257.5 4.16666667,257.5 C3.70666667,257.5 3.33333333,257.126667 3.33333333,256.666667 L3.33333333,248.333333 C3.33333333,247.873333 3.70666667,247.5 4.16666667,247.5 C4.62666667,247.5 5,247.873333 5,248.333333 L5,256.666667 Z M0.833333333,260 L15.8333333,260 L15.8333333,245 L0.833333333,245 L0.833333333,260 Z" id="Delete_Icon"></path>
                        </g>
                    </g>
                </g>
            </g>
        </g>
    </g>
</svg>