<?xml version="1.0" encoding="UTF-8"?>
<svg width="27px" height="20px" viewBox="0 0 27 20" version="1.1" xmlns="http://www.w3.org/2000/svg" xmlns:xlink="http://www.w3.org/1999/xlink">
    <!-- Generator: Sketch 49.2 (51160) - http://www.bohemiancoding.com/sketch -->
    <title>FullScreen_Icon</title>
    <desc>Created with Sketch.</desc>
    <defs></defs>
    <g id="Atoms-–-Desktop" stroke="none" stroke-width="1" fill="none" fill-rule="evenodd">
        <g id="Atoms" transform="translate(-830.000000, -3842.000000)" fill="#999999">
            <g id="Icons" transform="translate(130.000000, 2622.000000)">
                <g id="InputBox" transform="translate(400.000000, 110.000000)">
                    <g id="Primary-Button">
                        <g id="Side-Menu-Copy-2" transform="translate(0.000000, 990.000000)">
                            <path d="M320,120 L320,122.222222 L324.444444,122.222222 L324.444444,126.666667 L326.666667,126.666667 L326.666667,120 L320,120 Z M300,120 L300,126.666667 L302.222222,126.666667 L302.222222,122.222222 L306.666667,122.222222 L306.666667,120 L300,120 Z M304.444444,135.555556 L322.222222,135.555556 L322.222222,124.443333 L304.444444,124.443333 L304.444444,135.555556 Z M324.444444,133.333333 L324.444444,137.777778 L320,137.777778 L320,140 L326.666667,140 L326.666667,133.333333 L324.444444,133.333333 Z M300,133.333333 L300,140 L306.666667,140 L306.666667,137.777778 L302.222222,137.777778 L302.222222,133.333333 L300,133.333333 Z" id="FullScreen_Icon"></path>
                        </g>
                    </g>
                </g>
            </g>
        </g>
    </g>
</svg>