<?xml version="1.0" encoding="UTF-8"?>
<svg width="20px" height="20px" viewBox="0 0 20 20" version="1.1" xmlns="http://www.w3.org/2000/svg" xmlns:xlink="http://www.w3.org/1999/xlink">
    <!-- Generator: Sketch 49.2 (51160) - http://www.bohemiancoding.com/sketch -->
    <title>Info_Icon</title>
    <desc>Created with Sketch.</desc>
    <defs></defs>
    <g id="Atoms-–-Desktop" stroke="none" stroke-width="1" fill="none" fill-rule="evenodd">
        <g id="Atoms" transform="translate(-730.000000, -3962.000000)" fill="#999999" fill-rule="nonzero">
            <g id="Icons" transform="translate(130.000000, 2622.000000)">
                <g id="InputBox" transform="translate(400.000000, 110.000000)">
                    <g id="Primary-Button">
                        <g id="Side-Menu-Copy-2" transform="translate(0.000000, 990.000000)">
                            <path d="M210,240 C204.4775,240 200,244.4775 200,250 C200,255.5225 204.4775,260 210,260 C215.5225,260 220,255.5225 220,250 C220,244.4775 215.5225,240 210,240 Z M208.305833,253.341667 C208.775833,251.850833 209.665833,250.065 209.823333,249.613333 C210.050833,248.9575 209.6475,248.666667 208.373333,249.7875 L208.09,249.254167 C209.543333,247.673333 212.535833,247.315833 211.5175,249.765 C210.881667,251.294167 210.426667,252.326667 210.166667,253.123333 C209.7875,254.284167 210.745,253.813333 211.6825,252.9475 C211.81,253.155833 211.851667,253.223333 211.979167,253.463333 C209.8975,255.445 207.586667,255.62 208.305833,253.341667 L208.305833,253.341667 Z M212.2575,246.534167 C211.814167,246.911667 211.1575,246.903333 210.79,246.515833 C210.4225,246.128333 210.484167,245.509167 210.926667,245.131667 C211.37,244.754167 212.026667,244.763333 212.394167,245.15 C212.76,245.538333 212.7,246.1575 212.2575,246.534167 Z" id="Info_Icon"></path>
                        </g>
                    </g>
                </g>
            </g>
        </g>
    </g>
</svg>