<?xml version="1.0" encoding="UTF-8"?>
<svg width="20px" height="20px" viewBox="0 0 20 20" version="1.1" xmlns="http://www.w3.org/2000/svg" xmlns:xlink="http://www.w3.org/1999/xlink">
    <!-- Generator: Sketch 49.2 (51160) - http://www.bohemiancoding.com/sketch -->
    <title>Instagram_Icon</title>
    <desc>Created with Sketch.</desc>
    <defs></defs>
    <g id="Atoms-–-Desktop" stroke="none" stroke-width="1" fill="none" fill-rule="evenodd">
        <g id="Atoms" transform="translate(-630.000000, -2732.000000)" fill="#999999">
            <g id="Icons" transform="translate(130.000000, 2622.000000)">
                <g id="InputBox" transform="translate(400.000000, 110.000000)">
                    <g id="Primary-Button">
                        <g id="Social-Icons">
                            <path d="M114.1375,4.6625 C114.1375,5.325 114.675,5.8625 115.338333,5.8625 C116.000833,5.8625 116.5375,5.325 116.5375,4.6625 C116.5375,4 116.000833,3.4625 115.338333,3.4625 C114.675,3.4625 114.1375,4 114.1375,4.6625 Z M106.666667,10 C106.666667,8.15916667 108.159167,6.66666667 110,6.66666667 C111.840833,6.66666667 113.333333,8.15916667 113.333333,10 C113.333333,11.8416667 111.840833,13.3333333 110,13.3333333 C108.159167,13.3333333 106.666667,11.8416667 106.666667,10 Z M104.865,10 C104.865,12.8358333 107.164167,15.1358333 110,15.1358333 C112.835833,15.1358333 115.135,12.8366667 115.135,10 C115.135,7.16416667 112.835833,4.865 110,4.865 C107.164167,4.865 104.865,7.16416667 104.865,10 Z M105.8775,0.06 C102.245833,0.226666667 100.2275,2.24166667 100.060833,5.87666667 C100.011667,6.94416667 100,7.28416667 100,10 C100,12.7158333 100.011667,13.0566667 100.06,14.1233333 C100.226667,17.755 102.241667,19.7733333 105.876667,19.94 C106.944167,19.9883333 107.284167,20 110,20 C112.715833,20 113.056667,19.9883333 114.123333,19.94 C117.751667,19.7733333 119.775,17.7583333 119.939167,14.1233333 C119.988333,13.0566667 120,12.7158333 120,10 C120,7.28416667 119.988333,6.94416667 119.94,5.8775 C119.776667,2.24916667 117.759167,0.2275 114.124167,0.0608333333 C113.056667,0.0116666667 112.715833,0 110,0 C107.284167,0 106.944167,0.0116666667 105.8775,0.06 Z M114.041667,1.86083333 C116.751667,1.98416667 118.0175,3.27 118.140833,5.96 C118.189167,7.01416667 118.198333,7.33083333 118.198333,10.0008333 C118.198333,12.6716667 118.188333,12.9875 118.140833,14.0416667 C118.016667,16.7291667 116.754167,18.0175 114.041667,18.1408333 C112.986667,18.1891667 112.671667,18.1991667 110,18.1991667 C107.33,18.1991667 107.013333,18.1891667 105.959167,18.1408333 C103.2425,18.0166667 101.983333,16.725 101.86,14.0408333 C101.811667,12.9866667 101.801667,12.6708333 101.801667,10 C101.801667,7.33 101.8125,7.01416667 101.86,5.95916667 C101.984167,3.27 103.246667,1.98333333 105.959167,1.86 C107.014167,1.8125 107.33,1.8025 110,1.8025 C112.67,1.8025 112.986667,1.8125 114.041667,1.86083333 Z" id="Instagram_Icon"></path>
                        </g>
                    </g>
                </g>
            </g>
        </g>
    </g>
</svg>