<?xml version="1.0" encoding="UTF-8"?>
<svg width="20px" height="20px" viewBox="0 0 20 20" version="1.1" xmlns="http://www.w3.org/2000/svg" xmlns:xlink="http://www.w3.org/1999/xlink">
    <!-- Generator: Sketch 49.2 (51160) - http://www.bohemiancoding.com/sketch -->
    <title>Fill 1</title>
    <desc>Created with Sketch.</desc>
    <defs></defs>
    <g id="Atoms-–-Desktop" stroke="none" stroke-width="1" fill="none" fill-rule="evenodd">
        <g id="Atoms" transform="translate(-730.000000, -3192.000000)" fill="#999999">
            <g id="Icons" transform="translate(130.000000, 2622.000000)">
                <g id="InputBox" transform="translate(400.000000, 110.000000)">
                    <g id="Primary-Button">
                        <g id="Side-Menu-Copy" transform="translate(0.000000, 340.000000)">
                            <path d="M210.852369,121.568701 L208.411612,124.009458 C209.475746,123.929461 210.554878,124.089456 211.56068,124.487776 L212.665646,123.382811 C213.754778,122.293678 215.52639,122.293678 216.615522,123.382811 C217.704655,124.471944 217.704655,126.243555 216.615522,127.332688 L213.028135,130.920075 C211.935669,132.012541 210.161557,132.003375 209.078258,130.920075 C208.825766,130.667583 208.608273,130.353426 208.472444,130.044269 L206.600835,131.915044 C206.797496,132.213368 207.001656,132.47086 207.264148,132.733352 C207.940794,133.409998 208.802433,133.914149 209.794069,134.153308 C211.079029,134.462465 212.455652,134.291637 213.638115,133.639157 C214.069769,133.400831 214.475589,133.099174 214.841411,132.733352 L218.427966,129.145964 C220.521234,127.05353 220.521234,123.661136 218.428799,121.568701 C216.336364,119.4771 212.944804,119.4771 210.852369,121.568701 M205.155881,127.26519 C205.521702,126.899368 205.927523,126.59771 206.359176,126.359385 C208.764934,125.033593 211.849838,125.738571 213.396456,128.083497 L211.524848,129.954272 C210.988198,128.730144 209.65574,128.033499 208.329948,128.330156 C207.830797,128.44182 207.356645,128.690978 206.969157,129.078466 L203.382603,132.666687 C202.29347,133.75582 202.29347,135.527431 203.382603,136.616564 C204.471735,137.705697 206.243347,137.705697 207.332479,136.616564 L208.438278,135.510765 C209.44408,135.909919 210.52238,136.069081 211.587346,135.989917 L209.146589,138.430674 C207.054155,140.523109 203.661761,140.523109 201.569326,138.430674 C199.476891,136.338239 199.476891,132.945845 201.569326,130.853411 L205.155881,127.26519" id="Fill-1"></path>
                        </g>
                    </g>
                </g>
            </g>
        </g>
    </g>
</svg>