<?xml version="1.0" encoding="UTF-8"?>
<svg width="20px" height="20px" viewBox="0 0 20 20" version="1.1" xmlns="http://www.w3.org/2000/svg" xmlns:xlink="http://www.w3.org/1999/xlink">
    <!-- Generator: Sketch 49.2 (51160) - http://www.bohemiancoding.com/sketch -->
    <title>Notifications_Icon</title>
    <desc>Created with Sketch.</desc>
    <defs></defs>
    <g id="Atoms-–-Desktop" stroke="none" stroke-width="1" fill="none" fill-rule="evenodd">
        <g id="Atoms" transform="translate(-630.000000, -2902.000000)" fill="#999999">
            <g id="Icons" transform="translate(130.000000, 2622.000000)">
                <g id="InputBox" transform="translate(400.000000, 110.000000)">
                    <g id="Primary-Button">
                        <g id="Main-Nav" transform="translate(0.000000, 170.000000)">
                            <path d="M110,20 C104.477153,20 100,15.5228475 100,10 C100,4.4771525 104.477153,0 110,0 C115.522847,0 120,4.4771525 120,10 C120,15.5228475 115.522847,20 110,20 Z M111.364218,5.79005933 C111.068871,5.6205151 110.88598,5.30468447 110.886587,4.96414239 L110.886587,4.96247735 C110.886587,4.43090399 110.455631,4 109.92411,4 C109.392537,4 108.961633,4.43090399 108.961633,4.96247735 L108.961633,4.96416882 C108.962214,5.30513376 108.77972,5.62035653 108.484002,5.79008576 C106.341058,7.02010734 107.572427,11.1050529 105.333333,11.8270232 L105.333333,12.7811489 L114.514887,12.7811489 L114.514887,11.8270232 C112.275766,11.1050264 113.507162,7.02008091 111.364218,5.79005933 Z M111.249991,13.5762228 L108.624659,13.5762228 C108.624659,14.301206 109.212368,14.8888889 109.937325,14.8888889 C110.662308,14.8888889 111.249991,14.301206 111.249991,13.5762228 Z" id="Notifications_Icon"></path>
                        </g>
                    </g>
                </g>
            </g>
        </g>
    </g>
</svg>