<?xml version="1.0" encoding="UTF-8"?>
<svg width="20px" height="20px" viewBox="0 0 20 20" version="1.1" xmlns="http://www.w3.org/2000/svg" xmlns:xlink="http://www.w3.org/1999/xlink">
    <!-- Generator: Sketch 49.2 (51160) - http://www.bohemiancoding.com/sketch -->
    <title>Products_Icon</title>
    <desc>Created with Sketch.</desc>
    <defs></defs>
    <g id="Atoms-–-Desktop" stroke="none" stroke-width="1" fill="none" fill-rule="evenodd">
        <g id="Atoms" transform="translate(-530.000000, -2902.000000)" fill="#999999">
            <g id="Icons" transform="translate(130.000000, 2622.000000)">
                <g id="InputBox" transform="translate(400.000000, 110.000000)">
                    <g id="Primary-Button">
                        <g id="Main-Nav" transform="translate(0.000000, 170.000000)">
                            <path d="M0,0 L4,0 L4,4 L0,4 L0,0 Z M8,0 L12,0 L12,4 L8,4 L8,0 Z M16,0 L20,0 L20,4 L16,4 L16,0 Z M0,8 L4,8 L4,12 L0,12 L0,8 Z M8,8 L12,8 L12,12 L8,12 L8,8 Z M16,8 L20,8 L20,12 L16,12 L16,8 Z M0,16 L4,16 L4,20 L0,20 L0,16 Z M8,16 L12,16 L12,20 L8,20 L8,16 Z M16,16 L20,16 L20,20 L16,20 L16,16 Z" id="Products_Icon"></path>
                        </g>
                    </g>
                </g>
            </g>
        </g>
    </g>
</svg>