<?xml version="1.0" encoding="UTF-8"?>
<svg width="20px" height="20px" viewBox="0 0 20 20" version="1.1" xmlns="http://www.w3.org/2000/svg" xmlns:xlink="http://www.w3.org/1999/xlink">
    <!-- Generator: Sketch 49.2 (51160) - http://www.bohemiancoding.com/sketch -->
    <title>Search_Icon</title>
    <desc>Created with Sketch.</desc>
    <defs></defs>
    <g id="Atoms-–-Desktop" stroke="none" stroke-width="1" fill="none" fill-rule="evenodd">
        <g id="Atoms" transform="translate(-830.000000, -3722.000000)" fill="#999999">
            <g id="Icons" transform="translate(130.000000, 2622.000000)">
                <g id="InputBox" transform="translate(400.000000, 110.000000)">
                    <g id="Primary-Button">
                        <g id="Side-Menu-Copy-2" transform="translate(0.000000, 990.000000)">
                            <path d="M319.851667,17.4 L314.5575,12.105 C315.3325,10.8841667 315.78,9.43833333 315.78,7.88916667 C315.780833,3.54 312.240833,0 307.89,0 C303.539167,0 300,3.54 300,7.89 C300,12.2408333 303.539167,15.7808333 307.89,15.7808333 C309.363333,15.7808333 310.740833,15.375 311.9225,14.67 L317.2525,20 L319.851667,17.4 Z M302.94,7.89 C302.94,5.1625 305.160833,2.94166667 307.889167,2.94166667 C310.618333,2.94166667 312.839167,5.16166667 312.839167,7.89 C312.839167,10.6191667 310.618333,12.8391667 307.889167,12.8391667 C305.160833,12.8391667 302.94,10.6191667 302.94,7.89 Z" id="Search_Icon"></path>
                        </g>
                    </g>
                </g>
            </g>
        </g>
    </g>
</svg>