<?xml version="1.0" encoding="UTF-8"?>
<svg width="23px" height="22px" viewBox="0 0 23 22" version="1.1" xmlns="http://www.w3.org/2000/svg" xmlns:xlink="http://www.w3.org/1999/xlink">
    <!-- Generator: Sketch 49.2 (51160) - http://www.bohemiancoding.com/sketch -->
    <title>Snapchat_Icon</title>
    <desc>Created with Sketch.</desc>
    <defs></defs>
    <g id="Atoms-–-Desktop" stroke="none" stroke-width="1" fill="none" fill-rule="evenodd">
        <g id="Atoms" transform="translate(-929.000000, -2731.000000)" stroke="#999999">
            <g id="Icons" transform="translate(130.000000, 2622.000000)">
                <g id="InputBox" transform="translate(400.000000, 110.000000)">
                    <g id="Primary-Button">
                        <g id="Social-Icons">
                            <path d="M418.127237,17.7832059 C417.996254,18.2313792 417.587022,18.1811102 417.131768,18.0911923 C416.469067,17.9623336 415.877166,17.9262249 415.188268,18.0402152 C413.997387,18.2384594 412.759778,20 410.683878,20 C408.4508,20 407.288948,18.2462475 406.051338,18.0402152 C404.788948,17.8306429 404.063941,18.1676579 403.628512,18.1676579 C403.292913,18.1676579 403.162638,17.9623336 403.112369,17.7924101 C402.999795,17.4122062 402.930409,16.9109317 402.842615,16.7912773 C401.985209,16.6595865 400.050913,16.3225715 400.000644,15.4595016 C399.988608,15.2350609 400.146495,15.0361088 400.36952,15 C403.209367,14.5327103 405.01622,11.3296517 404.721686,10.6350892 C404.512822,10.142311 403.607271,9.96459926 403.226359,9.81450014 C402.242927,9.42580006 402.104864,8.97975078 402.164337,8.6731804 C402.244343,8.24837157 402.763318,7.96374965 403.195915,7.96374965 C403.612935,7.96374965 404.348563,8.52024922 404.922055,8.20305862 C404.838509,6.71339564 404.628228,4.5815633 405.159239,3.39280657 C406.170993,1.12291136 408.388495,0 410.608121,0 C412.842615,0 415.077818,1.13777967 416.081783,3.39068253 C416.611378,4.57873124 416.403221,6.69994336 416.31826,8.20305862 C416.859891,8.50184084 417.530381,7.94958935 417.99767,7.94958935 C418.456464,7.94958935 419.078101,8.25899179 419.088721,8.77655055 C419.096509,9.18153498 418.735422,9.53058624 418.014663,9.81450014 C417.628087,9.96743132 416.7282,10.143727 416.518628,10.6350892 C416.218429,11.345228 418.081216,14.5383744 420.871502,14.997876 C421.093111,15.0346927 421.252414,15.2315208 421.23967,15.4580855 C421.190109,16.3211555 419.246608,16.6581705 418.396991,16.7898612 C418.310613,16.9066837 418.24052,17.3966298 418.127237,17.7832059 Z" id="Snapchat_Icon"></path>
                        </g>
                    </g>
                </g>
            </g>
        </g>
    </g>
</svg>