<?xml version="1.0" encoding="UTF-8"?>
<svg width="25px" height="20px" viewBox="0 0 25 20" version="1.1" xmlns="http://www.w3.org/2000/svg" xmlns:xlink="http://www.w3.org/1999/xlink">
    <!-- Generator: Sketch 49.2 (51160) - http://www.bohemiancoding.com/sketch -->
    <title>Twitter_Icon</title>
    <desc>Created with Sketch.</desc>
    <defs></defs>
    <g id="Atoms-–-Desktop" stroke="none" stroke-width="1" fill="none" fill-rule="evenodd">
        <g id="Atoms" transform="translate(-730.000000, -2732.000000)" fill="#999999">
            <g id="Icons" transform="translate(130.000000, 2622.000000)">
                <g id="InputBox" transform="translate(400.000000, 110.000000)">
                    <g id="Primary-Button">
                        <g id="Social-Icons">
                            <path d="M212.31032,6.29723762 C208.047998,6.08307987 204.268155,4.04149827 201.739094,0.937460939 C200.397483,3.2440315 201.04329,6.25973918 203.326528,7.78634224 C202.487396,7.75967668 201.694929,7.52885296 201.004958,7.14386901 C200.94996,9.52043665 202.651556,11.742844 205.118953,12.2378234 C204.39815,12.4336486 203.60735,12.4786467 202.803217,12.3253198 C203.454856,14.3619016 205.34811,15.8460064 207.59385,15.8876713 C205.437273,17.5767676 202.721553,18.3309029 200,18.0109162 C201.456606,18.945044 203.088205,19.6291821 204.835632,20 L211.030374,20 C218.56506,18.4458981 222.726553,11.4286905 222.439065,5.05812258 C223.441523,4.33481938 224.311487,3.43152369 224.998958,2.40656639 C224.080663,2.81488271 223.090705,3.08903796 222.054081,3.21486605 C223.111537,2.5798925 223.92567,1.57493438 224.308154,0.377484271 C223.317362,0.964959793 222.219908,1.39160868 221.05079,1.6207658 C220.114162,0.622474064 218.781717,0 217.307612,0 C213.996083,0 211.562018,3.08903796 212.31032,6.29723762 Z" id="Twitter_Icon"></path>
                        </g>
                    </g>
                </g>
            </g>
        </g>
    </g>
</svg>