<?xml version="1.0" encoding="UTF-8"?>
<svg width="22px" height="20px" viewBox="0 0 22 20" version="1.1" xmlns="http://www.w3.org/2000/svg" xmlns:xlink="http://www.w3.org/1999/xlink">
    <!-- Generator: Sketch 49.2 (51160) - http://www.bohemiancoding.com/sketch -->
    <title>Video_Icon</title>
    <desc>Created with Sketch.</desc>
    <defs></defs>
    <g id="Atoms-–-Desktop" stroke="none" stroke-width="1" fill="none" fill-rule="evenodd">
        <g id="Atoms" transform="translate(-530.000000, -3382.000000)" fill="#999999">
            <g id="Icons" transform="translate(130.000000, 2622.000000)">
                <g id="InputBox" transform="translate(400.000000, 110.000000)">
                    <g id="Primary-Button">
                        <g id="Media" transform="translate(0.000000, 650.000000)">
                            <path d="M0,20 L21.8181818,20 L21.8181818,0 L0,0 L0,20 Z M18.1818182,3.63636364 L20,3.63636364 L20,1.81818182 L18.1818182,1.81818182 L18.1818182,3.63636364 Z M5.45454545,9.09090909 L16.3636364,9.09090909 L16.3636364,1.81818182 L5.45454545,1.81818182 L5.45454545,9.09090909 Z M1.81818182,3.63636364 L3.63636364,3.63636364 L3.63636364,1.81818182 L1.81818182,1.81818182 L1.81818182,3.63636364 Z M18.1818182,7.27272727 L20,7.27272727 L20,5.45454545 L18.1818182,5.45454545 L18.1818182,7.27272727 Z M1.81818182,7.27272727 L3.63636364,7.27272727 L3.63636364,5.45454545 L1.81818182,5.45454545 L1.81818182,7.27272727 Z M18.1818182,10.9090909 L20,10.9090909 L20,9.09090909 L18.1818182,9.09090909 L18.1818182,10.9090909 Z M1.81818182,10.9090909 L3.63636364,10.9090909 L3.63636364,9.09090909 L1.81818182,9.09090909 L1.81818182,10.9090909 Z M5.45454545,18.1818182 L16.3636364,18.1818182 L16.3636364,10.9090909 L5.45454545,10.9090909 L5.45454545,18.1818182 Z M18.1818182,14.5454545 L20,14.5454545 L20,12.7272727 L18.1818182,12.7272727 L18.1818182,14.5454545 Z M1.81818182,14.5454545 L3.63636364,14.5454545 L3.63636364,12.7272727 L1.81818182,12.7272727 L1.81818182,14.5454545 Z M18.1818182,18.1818182 L20,18.1818182 L20,16.3636364 L18.1818182,16.3636364 L18.1818182,18.1818182 Z M1.81818182,18.1818182 L3.63636364,18.1818182 L3.63636364,16.3636364 L1.81818182,16.3636364 L1.81818182,18.1818182 Z" id="Video_Icon"></path>
                        </g>
                    </g>
                </g>
            </g>
        </g>
    </g>
</svg>